<svg id="Flat" height="512" viewBox="0 0 64 64" width="512" xmlns="http://www.w3.org/2000/svg"><g id="_1" data-name="1"><g><g><path d="m49.5 15h-5.562l-1.5 6h8.562z" fill="#707c99"/><path d="m19.5 15h-5.562l-1.5 6h8.562z" fill="#707c99"/><g><path d="m20.351 11.063-8-3a1 1 0 0 0 -1.351.937v4a1 1 0 0 0 1 1c.552 0 7.649-1.063 7.649-1.063a1 1 0 1 0 .7-1.874z" fill="#fccd81"/><path d="m50.362 11.756-19.272-1.756h-.09l-19.362 1.76a3.981 3.981 0 0 0 -3.638 3.98v1.26h46v-1.26a3.981 3.981 0 0 0 -3.638-3.984z" fill="#e66e5c"/><path d="m24 10.632v6.368h6v-6.913z" fill="#fccd81"/></g></g><g><g><path d="m61.618 31h-59.236l-.382 2-2 2.764v11.236a3 3 0 0 0 3 3h6.945l.109-.876a7 7 0 0 1 13.946.876h37a3 3 0 0 0 3-3v-11.236l-2-2.764z" fill="#e66e5c"/><g fill="#e65a45"><path d="m5 35h4v2h-4z"/><path d="m20 35h12v2h-12z"/><path d="m12 35h5v2h-5z"/><path d="m5 39h4v2h-4z"/><path d="m42 36h4v2h-4z"/></g><path d="m62 37h2a0 0 0 0 1 0 0v8a0 0 0 0 1 0 0h-2a2 2 0 0 1 -2-2v-4a2 2 0 0 1 2-2z" fill="#fccd81"/><path d="m0 44h2a2 2 0 0 1 2 2v4a0 0 0 0 1 0 0h-2a2 2 0 0 1 -2-2v-4a0 0 0 0 1 0 0z" fill="#fccd81"/><path d="m36 32h2v18h-2z" fill="#e65a45"/><path d="m58.935 22.144a4.976 4.976 0 0 0 -4.643-3.144h-47.652a3.007 3.007 0 0 0 -2.94 2.412l-1.68 8.388-.02 3.2h60v-3.192z" fill="#fccd81"/><g fill="#fef4e5"><path d="m59.277 23h-18.277a3 3 0 0 0 -3 3v7h24v-3.192z"/><path d="m9 23h-5.62l-1.36 6.8-.02 3.2h10v-7a3 3 0 0 0 -3-3z"/></g><path d="m33 23h-16a3 3 0 0 0 -3 3v7h22v-7a3 3 0 0 0 -3-3z" fill="#fef4e5"/></g><g><circle cx="46" cy="50" fill="#707c99" r="6"/><g><circle cx="17" cy="50" fill="#707c99" r="6"/><path d="m16 49h2v2h-2z" fill="#a4a8b3"/></g></g><path d="m45 49h2v2h-2z" fill="#a4a8b3"/></g></g></g></svg>