<svg id="Expand_Filled" height="512" viewBox="0 0 64 64" width="512" xmlns="http://www.w3.org/2000/svg" data-name="Expand Filled"><g id="_1" data-name="1"><g><g><g><path d="m25 49c0-4.418-3.582-7-8-7a8 8 0 0 0 -7.938 7h-6.062a2 2 0 0 1 -2-2v-11l2-4h58l2 4v11a2 2 0 0 1 -2 2z" fill="#d63230"/><path d="m61 32h-58v-2l1.678-8.392a2 2 0 0 1 1.962-1.608h47.652a4 4 0 0 1 3.714 2.514l2.994 7.486z" fill="#fcb641"/><path d="m19 20h-6l1-4h4z" fill="#383e4c"/><path d="m50 20h-6l1-4h4z" fill="#383e4c"/><path d="m12 13v-4l8 3z" fill="#fcb641"/><path d="m53 16h-44v-.26a3 3 0 0 1 2.728-2.988l19.272-1.752 19.272 1.752a3 3 0 0 1 2.728 2.988z" fill="#e84fb0"/><path d="m25 49c0-4.418-3.582-7-8-7a8 8 0 0 0 -7.938 7h-6.062a2 2 0 0 1 -2-2v-11l2-4h58l2 4v11a2 2 0 0 1 -2 2z" fill="#e65039"/><path d="m61 32h-58v-2l1.678-8.392a2 2 0 0 1 1.962-1.608h47.652a4 4 0 0 1 3.714 2.514l2.994 7.486z" fill="#fcb641"/><path d="m7 35h4v2h-4z"/><path d="m20 35h12v2h-12z"/><path d="m13 35h5v2h-5z"/><path d="m7 39h4v2h-4z"/><g fill="#fef0d9"><path d="m61 31v1h-22v-6a2 2 0 0 1 2-2h17"/><path d="m4 24h5a2 2 0 0 1 2 2v6h-8"/><path d="m35 32h-20v-6a2 2 0 0 1 2-2h16a2 2 0 0 1 2 2z"/></g><path d="m42 36h4v2h-4z"/><path d="m61 37h2a0 0 0 0 1 0 0v8a0 0 0 0 1 0 0h-2a2 2 0 0 1 -2-2v-4a2 2 0 0 1 2-2z" fill="#fcb641"/><path d="m1 43h2a2 2 0 0 1 2 2v4a0 0 0 0 1 0 0h-2a2 2 0 0 1 -2-2v-4a0 0 0 0 1 0 0z" fill="#fcb641"/><path d="m35 42v-10h4v17h-4v-5z" fill="#ad3c2b"/></g><g><circle cx="46" cy="50" fill="#383e4c" r="5"/><g><circle cx="17" cy="50" fill="#383e4c" r="5"/><path d="m17 56a6 6 0 1 1 6-6 6.006 6.006 0 0 1 -6 6zm0-10a4 4 0 1 0 4 4 4 4 0 0 0 -4-4z"/><path d="m16 49h2v2h-2z"/></g></g><path d="m45 49h2v2h-2z"/></g><g><g fill="#383e4c"><path d="m19 20h-6l1-4h4z"/><path d="m50 20h-6l1-4h4z"/></g><g><path d="m12 13v-4l8 3z" fill="#fcb641"/><path d="m53 16h-44v-.26a3 3 0 0 1 2.728-2.988l19.272-1.752 19.272 1.752a3 3 0 0 1 2.728 2.988z" fill="#e65039"/><path d="m25 11.545v4.455h4v-4.818z" fill="#fcb641"/><path d="m63.9 35.553-1.9-3.789v-1.764a1.012 1.012 0 0 0 -.071-.372l-2.994-7.484a4.976 4.976 0 0 0 -4.643-3.144h-3.511l-.5-2h2.719a1 1 0 0 0 1-1v-.26a3.981 3.981 0 0 0 -3.638-3.984l-19.272-1.756a1.082 1.082 0 0 0 -.18 0l-2 .182-4 .363-4.772.434-7.786-2.92a1 1 0 0 0 -1.352.941v2.875a3.971 3.971 0 0 0 -3 3.865v.26a1 1 0 0 0 1 1h3.719l-.5 2h-5.579a3.007 3.007 0 0 0 -2.94 2.412l-1.68 8.388a.925.925 0 0 0 -.02.2v1.764l-1.895 3.789a1 1 0 0 0 -.105.447v11a3 3 0 0 0 3 3h6.062a1 1 0 0 0 .992-.876 7 7 0 0 1 13.946.876h16a6 6 0 0 0 12 0h9a3 3 0 0 0 3-3v-11a1 1 0 0 0 -.1-.447zm-5.977-10.553 2.077 5.192v.808h-20v-5a1 1 0 0 1 1-1zm-27.923-12.9 1-.1 19.181 1.744a1.99 1.99 0 0 1 1.68 1.256h-21.861zm18.719 6.9h-3.438l.5-2h2.438zm-22.719-6.541.545-.05 1.455-.132v2.723h-2zm-1 4.541h18.719l-.5 2h-23.438l-.5-2zm-12-6.557 2.552.957-2.552.232zm-2.861 4.557a1.99 1.99 0 0 1 1.68-1.252l12.181-1.108v2.36zm7.58 4h-3.438l.5-2h2.438zm-13.719 11.1 1.02-5.1h3.98a1 1 0 0 1 1 1v5h-6zm0 17.9h-1a1 1 0 0 1 -1-1v-3h1a1 1 0 0 1 1 1zm34 0h-2v-4h-2v4h-8.232a9 9 0 0 0 -17.545 0h-2.223v-3a3 3 0 0 0 -3-3h-1v-5.764l1.618-3.236h30.382v9h2v-9h2zm-22-17v-5a1 1 0 0 1 1-1h16a1 1 0 0 1 1 1v5zm22-5v5h-2v-5a3 3 0 0 0 -3-3h-16a3 3 0 0 0 -3 3v5h-2v-5a3 3 0 0 0 -3-3h-3.58l.239-1.2a1 1 0 0 1 .981-.8h47.652a2.984 2.984 0 0 1 2.785 1.886l.046.114h-16.123a3 3 0 0 0 -3 3zm8 28a4 4 0 1 1 4-4 4 4 0 0 1 -4 4zm16-7a1 1 0 0 1 -1 1h-9.35a5.99 5.99 0 0 0 -11.3 0h-.35v-15h20.382l1.5 3h-.882a3 3 0 0 0 -3 3v4a3 3 0 0 0 3 3h1zm0-3h-1a1 1 0 0 1 -1-1v-4a1 1 0 0 1 1-1h1z"/></g></g></g></g></svg>