<svg id="Line_expand" height="512" viewBox="0 0 64 64" width="512" xmlns="http://www.w3.org/2000/svg" data-name="Line expand"><g id="_1_copy" data-name="1 copy"><g><path d="m7 35h4v2h-4z"/><path d="m20 35h12v2h-12z"/><path d="m13 35h5v2h-5z"/><path d="m7 39h4v2h-4z"/><path d="m42 36h4v2h-4z"/><path d="m17 44a6 6 0 1 0 6 6 6.006 6.006 0 0 0 -6-6zm0 10a4 4 0 1 1 4-4 4 4 0 0 1 -4 4z"/><path d="m63.9 35.553-1.9-3.789v-1.764a1.012 1.012 0 0 0 -.071-.372l-2.994-7.484a4.976 4.976 0 0 0 -4.643-3.144h-3.511l-.5-2h2.719a1 1 0 0 0 1-1v-.26a3.981 3.981 0 0 0 -3.638-3.984l-19.272-1.756a1.082 1.082 0 0 0 -.18 0l-10.773.979-7.786-2.92a1 1 0 0 0 -1.351.941v2.865a3.979 3.979 0 0 0 -3 3.875v.26a1 1 0 0 0 1 1h3.719l-.5 2h-5.579a3.007 3.007 0 0 0 -2.94 2.412l-1.68 8.388a.925.925 0 0 0 -.02.2v1.764l-1.895 3.789a1 1 0 0 0 -.105.447v11a3 3 0 0 0 3 3h6.062a1 1 0 0 0 .992-.876 7 7 0 0 1 13.946.876h16a6 6 0 0 0 12 0h9a3 3 0 0 0 3-3v-11a1 1 0 0 0 -.1-.447zm-3.9-5.361v.808h-20v-5a1 1 0 0 1 1-1h16.923zm-11.281-11.192h-3.438l.5-2h2.438zm-28.938 0-.5-2h24.438l-.5 2zm6.219-4v-2.541l2-.182v2.723zm5-3 19.181 1.744a1.99 1.99 0 0 1 1.68 1.256h-21.861v-2.9zm-15.448-.6-2.552.232v-1.189zm-3.733 2.348 12.181-1.108v2.36h-13.861a1.99 1.99 0 0 1 1.68-1.252zm2.962 3.252h2.438l.5 2h-3.438zm-8.141 4h47.652a2.984 2.984 0 0 1 2.785 1.886l.046.114h-16.123a3 3 0 0 0 -3 3v5h-2v-5a3 3 0 0 0 -3-3h-16a3 3 0 0 0 -3 3v5h-2v-5a3 3 0 0 0 -3-3h-3.58l.239-1.2a1 1 0 0 1 .981-.8zm27.36 10h-18v-5a1 1 0 0 1 1-1h16a1 1 0 0 1 1 1zm-30-.9 1.02-5.1h3.98a1 1 0 0 1 1 1v5h-6zm-2 16.9v-3h1a1 1 0 0 1 1 1v3h-1a1 1 0 0 1 -1-1zm23.776 1a9 9 0 0 0 -17.553 0h-2.223v-3a3 3 0 0 0 -3-3h-1v-5.764l1.618-3.236h30.382v9h2v-9h2v15h-2v-4h-2v4zm20.224 6a4 4 0 1 1 4-4 4 4 0 0 1 -4 4zm15-6h-9.343a6 6 0 0 0 -11.314 0h-.343v-15h20.382l1.5 3h-.882a3 3 0 0 0 -3 3v4a3 3 0 0 0 3 3h1v1a1 1 0 0 1 -1 1zm1-10v6h-1a1 1 0 0 1 -1-1v-4a1 1 0 0 1 1-1z"/><path d="m16 49h2v2h-2z"/><path d="m45 49h2v2h-2z"/></g></g></svg>